<svg xmlns="http://www.w3.org/2000/svg" viewBox="0 0 64 64" width="64" height="64">
  <defs>
    <linearGradient id="appleBg" x1="0" y1="0" x2="0" y2="1">
      <stop offset="0%" stop-color="#0f172a"/>
      <stop offset="100%" stop-color="#1e3a8a"/>
    </linearGradient>
  </defs>
  <rect width="64" height="64" rx="15" fill="url(#appleBg)"/>
  <rect x="1" y="1" width="62" height="62" rx="14" fill="none" stroke="rgba(255,255,255,0.2)" stroke-width="1.5"/>
  <rect x="8" y="10" width="22" height="44" rx="6" fill="rgba(244,114,182,0.25)" stroke="rgba(244,114,182,0.6)" stroke-width="1.5"/>
  <rect x="34" y="10" width="22" height="44" rx="6" fill="rgba(13,148,136,0.25)" stroke="rgba(13,148,136,0.6)" stroke-width="1.5"/>
  <line x1="32" y1="8" x2="32" y2="56" stroke="#ffffff" stroke-width="2.5" stroke-linecap="round"/>
  <rect x="23" y="27" width="18" height="10" rx="5" fill="#ffffff" stroke="#2563eb" stroke-width="1"/>
  <polygon points="27,32 30,30 30,34" fill="#0f172a"/>
  <polygon points="37,32 34,30 34,34" fill="#0f172a"/>
  <polygon points="45,16 46.5,19.5 50,21 46.5,22.5 45,26 43.5,22.5 40,21 43.5,19.5" fill="#facc15"/>
</svg>
